HIERARCHY
ROOT joint_Root
{
	OFFSET 0.0 0.0 0.0
	CHANNELS 6 Xposition Yposition Zposition Zrotation Xrotation Yrotation 
	JOINT Hips
	{
		OFFSET -0.726466 93.3139 -2.00062
		CHANNELS 6 Xposition Yposition Zposition Zrotation Xrotation Yrotation 
		JOINT Spine
		{
			OFFSET 15.7357 0.0 0.0
			CHANNELS 6 Xposition Yposition Zposition Zrotation Xrotation Yrotation 
			JOINT Chest
			{
				OFFSET 8.98455 -0.406207 0.0
				CHANNELS 6 Xposition Yposition Zposition Zrotation Xrotation Yrotation 
				JOINT Neck
				{
					OFFSET 16.3773 0.0 0.0
					CHANNELS 6 Xposition Yposition Zposition Zrotation Xrotation Yrotation 
					JOINT Head
					{
						OFFSET 6.45672 0.0 0.0
						CHANNELS 6 Xposition Yposition Zposition Zrotation Xrotation Yrotation 
						End Site
						{
							OFFSET 0.0 0.0 0.0
						}
					}
				}
				JOINT Shoulder_L
				{
					OFFSET 12.9942 -0.242716 4.98039
					CHANNELS 6 Xposition Yposition Zposition Zrotation Xrotation Yrotation 
					JOINT UpperArm_L
					{
						OFFSET 5.34809 0.0 0.0
						CHANNELS 6 Xposition Yposition Zposition Zrotation Xrotation Yrotation 
						JOINT LowerArm_L
						{
							OFFSET 24.3286 1.87007e-05 0.0
							CHANNELS 6 Xposition Yposition Zposition Zrotation Xrotation Yrotation 
							JOINT Hand_L
							{
								OFFSET 22.2916 0.0 0.0
								CHANNELS 6 Xposition Yposition Zposition Zrotation Xrotation Yrotation 
								End Site
								{
									OFFSET 0.0 0.0 0.0
								}
							}
						}
					}
				}
				JOINT Shoulder_R
				{
					OFFSET 12.9945 -0.242716 -4.98039
					CHANNELS 6 Xposition Yposition Zposition Zrotation Xrotation Yrotation 
					JOINT UpperArm_R
					{
						OFFSET -5.34813 0.0 0.0
						CHANNELS 6 Xposition Yposition Zposition Zrotation Xrotation Yrotation 
						JOINT LowerArm_R
						{
							OFFSET -24.3289 0.000322201 0.0
							CHANNELS 6 Xposition Yposition Zposition Zrotation Xrotation Yrotation 
							JOINT Hand_R
							{
								OFFSET -22.2915 -0.000108084 0.0
								CHANNELS 6 Xposition Yposition Zposition Zrotation Xrotation Yrotation 
								End Site
								{
									OFFSET 0.0 0.0 0.0
								}
							}
						}
					}
				}
			}
		}
		JOINT UpperLeg_L
		{
			OFFSET -2.19248 -6.46944 0.0
			CHANNELS 6 Xposition Yposition Zposition Zrotation Xrotation Yrotation 
			JOINT LowerLeg_L
			{
				OFFSET 39.0811 0.0 -1.23785e-05
				CHANNELS 6 Xposition Yposition Zposition Zrotation Xrotation Yrotation 
				JOINT Foot_L
				{
					OFFSET 40.9854 0.0 -1.26872e-05
					CHANNELS 6 Xposition Yposition Zposition Zrotation Xrotation Yrotation 
					JOINT Toes_L
					{
						OFFSET 11.7543 0.0 0.0
						CHANNELS 6 Xposition Yposition Zposition Zrotation Xrotation Yrotation 
						End Site
						{
							OFFSET 0.0 0.0 0.0
						}
					}
				}
			}
		}
		JOINT UpperLeg_R
		{
			OFFSET -2.19251 6.46944 0.0
			CHANNELS 6 Xposition Yposition Zposition Zrotation Xrotation Yrotation 
			JOINT LowerLeg_R
			{
				OFFSET -39.0811 -0.00228153 -0.0401928
				CHANNELS 6 Xposition Yposition Zposition Zrotation Xrotation Yrotation 
				JOINT Foot_R
				{
					OFFSET -40.9854 0.0 0.0
					CHANNELS 6 Xposition Yposition Zposition Zrotation Xrotation Yrotation 
					JOINT Toes_R
					{
						OFFSET -11.7543 0.0 0.0
						CHANNELS 6 Xposition Yposition Zposition Zrotation Xrotation Yrotation 
						End Site
						{
							OFFSET 0.0 0.0 0.0
						}
					}
				}
			}
		}
	}
}
MOTION
Frames:	4
Frame Time:	0.0333333
0.000000 0.000000 0.000000 0.000000 0.000000 -0.000000 -1.161670 92.067400 -1.574200 87.780500 -2.349920 6.700000 15.735700 0.000005 -0.000001 81.874000 85.885600 -81.627600 8.984550 -0.406207 -0.000000 0.382864 -1.178660 0.496502 16.377300 -0.000001 -0.000001 5.866330 -0.984831 0.853324 6.456720 -0.000001 -0.000000 4.540270 -0.893554 -0.347379 12.994200 -0.242716 4.980390 -84.640100 -11.567000 -64.925000 5.348090 -0.000007 -0.000001 -50.895300 -50.953700 -83.680100 24.328600 0.000019 0.000005 8.889290 4.000870 -65.958300 22.291600 -0.000001 0.000005 21.724200 5.657750 -15.805600 12.994500 -0.242716 -4.980390 92.928600 -6.860710 -66.816000 -5.348130 -0.000001 -0.000004 -40.909600 -50.627400 -90.483700 -24.328900 0.000322 -0.000009 9.989120 7.550140 -53.280500 -22.291500 -0.000108 -0.000004 25.884600 5.631910 -13.481300 -2.192480 -6.469440 -0.000000 -168.705000 -20.113900 -0.617586 39.081100 -0.000007 -0.000012 -0.147759 0.339628 23.512200 40.985400 -0.000006 -0.000013 -5.390540 -0.291695 -63.723300 11.754300 -0.000000 0.000003 -0.000164 -0.001570 -16.637100 -2.192510 6.469440 -0.000001 173.954000 22.795200 -178.856000 -39.081100 -0.002282 -0.040193 0.027672 -0.061544 21.589000 -40.985400 0.000008 0.000006 -0.042562 4.182570 -63.762800 -11.754300 -0.000006 -0.000006 -0.004465 -0.056195 -18.859200
0.000000 0.000000 0.000000 0.000000 0.000000 -0.000000 -1.139380 92.083300 -1.616370 87.759000 -2.431010 6.648900 15.735700 0.000005 -0.000001 81.837100 85.871600 -81.564600 8.984550 -0.406207 -0.000000 0.410163 -1.189490 0.548813 16.377300 -0.000001 -0.000001 5.916280 -0.991446 0.840836 6.456720 -0.000001 -0.000000 4.517580 -0.932116 -0.380982 12.994200 -0.242716 4.980390 -84.634900 -11.548400 -64.868100 5.348090 -0.000007 -0.000001 -50.823600 -51.087600 -83.582100 24.328600 0.000019 0.000005 8.955380 4.023590 -65.998300 22.291600 -0.000001 0.000005 21.656600 5.656980 -15.721900 12.994500 -0.242716 -4.980390 92.947700 -6.883690 -66.750400 -5.348130 -0.000001 -0.000004 -40.788700 -50.757000 -90.455000 -24.328900 0.000322 -0.000009 9.815350 7.391940 -53.367000 -22.291500 -0.000108 -0.000004 25.801100 5.632160 -13.500400 -2.192480 -6.469440 -0.000000 -168.715000 -20.134000 -0.634868 39.081100 -0.000007 -0.000012 -0.148267 0.342050 23.435300 40.985400 -0.000006 -0.000013 -5.381530 -0.328371 -63.682900 11.754300 -0.000000 0.000003 -0.000154 -0.001488 -16.634100 -2.192510 6.469440 -0.000001 173.996000 22.761700 -178.916000 -39.081100 -0.002282 -0.040193 0.026281 -0.058291 21.501000 -40.985400 0.000008 0.000006 -0.114594 4.225310 -63.627400 -11.754300 -0.000006 -0.000006 -0.004492 -0.056460 -18.870000
0.000000 0.000000 0.000000 0.000000 0.000000 -0.000000 -1.118540 92.080800 -1.650640 87.751200 -2.483500 6.598510 15.735700 0.000005 -0.000001 81.893200 85.848500 -81.611700 8.984550 -0.406207 -0.000000 0.457131 -1.188450 0.567344 16.377300 -0.000001 -0.000001 5.945370 -1.005910 0.823019 6.456720 -0.000001 -0.000000 4.445250 -0.945170 -0.322200 12.994200 -0.242716 4.980390 -84.640800 -11.497200 -64.796000 5.348090 -0.000007 -0.000001 -50.592100 -51.297500 -83.476500 24.328600 0.000019 0.000005 8.914280 4.012770 -65.956000 22.291600 -0.000001 0.000005 21.573900 5.656710 -15.692400 12.994500 -0.242716 -4.980390 92.953500 -6.869740 -66.667300 -5.348130 -0.000001 -0.000004 -40.527000 -50.964400 -90.232100 -24.328900 0.000322 -0.000009 9.763410 7.318590 -53.490700 -22.291500 -0.000108 -0.000004 25.859200 5.633790 -13.626300 -2.192480 -6.469440 -0.000000 -168.749000 -20.192300 -0.735697 39.081100 -0.000007 -0.000012 -0.145384 0.334410 23.497000 40.985400 -0.000006 -0.000013 -5.361830 -0.368739 -63.696800 11.754300 -0.000000 0.000003 -0.000152 -0.001471 -16.633400 -2.192510 6.469440 -0.000001 174.030000 22.734800 -179.009000 -39.081100 -0.002282 -0.040193 0.027115 -0.060376 21.510900 -40.985400 0.000008 0.000006 -0.099942 4.255430 -63.622600 -11.754300 -0.000006 -0.000006 -0.004582 -0.057360 -18.906700
0.000000 0.000000 0.000000 0.000000 0.000000 -0.000000 -1.087460 92.097700 -1.675860 87.792200 -2.531790 6.537860 15.735700 0.000005 -0.000001 81.961200 85.831900 -81.683300 8.984550 -0.406207 -0.000000 0.491449 -1.183050 0.560476 16.377300 -0.000001 -0.000001 5.984790 -0.993398 0.803128 6.456720 -0.000001 -0.000000 4.455300 -0.928137 -0.283179 12.994200 -0.242716 4.980390 -84.632000 -11.484000 -64.734400 5.348090 -0.000007 -0.000001 -50.282900 -51.508200 -83.125100 24.328600 0.000019 0.000005 8.955350 4.006370 -66.089200 22.291600 -0.000001 0.000005 21.441400 5.656050 -15.621900 12.994500 -0.242716 -4.980390 92.942400 -6.819670 -66.594300 -5.348130 -0.000001 -0.000004 -40.210300 -51.164500 -89.905900 -24.328900 0.000322 -0.000009 9.645380 7.181170 -53.667400 -22.291500 -0.000108 -0.000004 25.864100 5.632730 -13.543400 -2.192480 -6.469440 -0.000000 -168.829000 -20.222000 -0.738934 39.081100 -0.000007 -0.000012 -0.146619 0.339370 23.366200 40.985400 -0.000006 -0.000013 -5.343380 -0.383591 -63.631200 11.754300 -0.000000 0.000003 -0.000149 -0.001444 -16.632400 -2.192510 6.469440 -0.000001 174.007000 22.680900 -179.076000 -39.081100 -0.002282 -0.040193 0.026182 -0.058225 21.438400 -40.985400 0.000008 0.000006 -0.148892 4.273280 -63.528700 -11.754300 -0.000006 -0.000006 -0.004605 -0.057586 -18.915900
